<svg xmlns="http://www.w3.org/2000/svg" viewBox="0 0 346.45 12.7"><title>svg4b</title><g id="Calque_2" data-name="Calque 2"><g id="Calque_1-2" data-name="Calque 1"><path d="M338.26,12.64c-20.29,0-40.57.16-60.85-.06-12.65-.13-25.28-1.22-37.92-1.17-17.13.07-34.26,1.19-51.4,1.21-24.47,0-48.94-.46-73.4-.91q-46.93-.87-93.85-2.07c-6-.15-12-.61-17.91-1.25C1.8,8.27-.07,6.53,0,5.68.11,4.45,1.6,3.26,2.68,2.25,3.05,1.9,4,2.13,4.63,2.12,33.77,1.76,62.91,1,92,1.18c23.62.18,47.24,2.35,70.85,2.28,24.93-.07,49.86-2,74.8-2.67C259.8.2,281.93.08,304.05,0c9.81,0,19.61.6,29.42.83,2,0,4-.64,5.95-.47,2.3.2,5.88.33,6.5,1.64.95,2,.57,5.41-.62,7.4-1,1.63-3.95,2.06-6.06,3-.26.11-.65-.08-1-.12Z"/></g></g></svg>