<?xml version="1.0" encoding="utf-8"?>
<!-- Generator: Adobe Illustrator 24.0.1, SVG Export Plug-In . SVG Version: 6.00 Build 0)  -->
<svg version="1.1" id="Calque_1" xmlns="http://www.w3.org/2000/svg" xmlns:xlink="http://www.w3.org/1999/xlink" x="0px" y="0px"
	 viewBox="0 0 595.28 841.89" style="enable-background:new 0 0 595.28 841.89;" xml:space="preserve">
<style type="text/css">
	.st0{fill:#471F23;}
</style>
<path class="st0" d="M298.77,417.9c16.15,0.64,32.28,0.19,48.41-0.63c21.8-1.11,43.58,0.17,65.36,0.75
	c7.15,0.19,14.3,0.37,21.46,0.58c1.49,0.04,2.99,0.17,4.48,0.35c1.49,0.18,3.12,0.27,3.19,2.37c0.08,2.6-1.88,2.19-3.49,2.35
	c-17.07,1.67-34.19,2.24-51.31,1.74c-41.27-1.2-82.53-1.38-123.81-1.27c-19.77,0.05-39.54-1.28-59.32,0.3
	c-15.43,1.23-30.93-0.84-46.37,0.55c-1.42,0.13-3.47,0.48-3.79-1.41c-0.31-1.85-0.11-3.88,2.08-5.12c2.33-1.32,4.54-2.27,7.38-2.28
	c24.14-0.1,48.24,0.93,72.36,1.59c18.96,0.52,37.94,0.12,56.92,0.12C294.46,417.9,296.62,417.9,298.77,417.9z"/>
</svg>
