<svg xmlns="http://www.w3.org/2000/svg" viewBox="0 0 367.01 12.55"><title>svg4</title><g id="Calque_2" data-name="Calque 2"><g id="Calque_1-2" data-name="Calque 1"><path d="M367,1.82V6.89c-12.74.91-25.3,2.15-37.9,2.6s-25.25-.23-37.86.16c-21.12.65-42.22,2.24-63.34,2.56-28.46.42-56.93,0-85.4-.07-18.15-.06-36.3-.2-54.45-.29-13.81-.07-27.61-.28-41.42-.16-13.15.12-26.29.62-39.44.86C2.37,12.63.28,10.48,0,5.63S.94.06,5.84.12c9.94.14,19.9-.2,29.85-.1C43,.09,50.32.7,57.64.78,69.78.92,81.93.64,94.07.87c19.29.35,38.58,1.09,57.87,1.46,21,.39,42,1.49,62.93.59C249.48,1.44,284-.22,318.68,2.22c14.23,1,28.62-.2,42.93-.39C363.27,1.8,364.92,1.82,367,1.82Z"/></g></g></svg>