<?xml version="1.0" encoding="utf-8"?>
<!-- Generator: Adobe Illustrator 24.0.1, SVG Export Plug-In . SVG Version: 6.00 Build 0)  -->
<svg version="1.1" id="Calque_1" xmlns="http://www.w3.org/2000/svg" xmlns:xlink="http://www.w3.org/1999/xlink" x="0px" y="0px"
	 viewBox="0 0 1366 768" style="enable-background:new 0 0 1366 768;" xml:space="preserve">
<style type="text/css">
	.st0{fill:#471E23;}
</style>
<path class="st0" d="M828.83,386.92c-1.55,2.07-3.77,2.08-5.93,1.93c-7.15-0.5-14.29-0.07-21.44-0.03
	c-35.1,0.22-70.21,0.41-105.31,0.32c-50.42-0.13-100.81-1.55-151.18-3.81c-0.5-0.02-1.02,0.01-1.49-0.12
	c-2.03-0.54-5.3,0.48-5.24-3.01c0.06-3.44,3.19-2.87,5.35-2.88c15.3-0.03,30.59-0.01,45.89,0.13c22.81,0.21,45.61-0.26,68.43,0.21
	c45.09,0.92,90.19,1.52,135.29,1.99c8.98,0.09,17.95,0.11,26.92,0.53C823.92,382.37,826.83,383.67,828.83,386.92z"/>
</svg>
