<svg xmlns="http://www.w3.org/2000/svg" viewBox="0 0 288.01 8.47"><title>svg1</title><g id="Calque_2" data-name="Calque 2"><g id="Calque_1-2" data-name="Calque 1"><path d="M145,.88c16,0,32-.1,47.94,0q33,.24,65.91.79c8.32.13,16.65.41,24.95.9,1.43.08,2.79,1.54,4.18,2.36-1.37.76-2.73,2.15-4.11,2.17-26.1.46-52.2.94-78.31,1-30,.1-59.94-.25-89.92-.27q-50.9,0-101.8.17c-3.33,0-6.66.46-10,.4C2.59,8.44,1.3,7.58,0,7.11c.62-1.62.78-3.88,2-4.7A12.45,12.45,0,0,1,8.7,0C32.84.35,57,1.09,81.11,1.43c18.64.26,37.29.09,55.94.12h8Z"/></g></g></svg>