<svg xmlns="http://www.w3.org/2000/svg" viewBox="0 0 389.59 13.6"><defs><style>.cls-1{fill:#fcfefc;}.cls-2{fill:#5aa94b;}.cls-3{fill:#4a9c42;}.cls-4{fill:#b5f47e;}.cls-5{fill:#76bf5d;}.cls-6{fill:#96dc6b;}.cls-7{fill:#8dd368;}.cls-8{fill:#82c963;}</style></defs><title>svg4</title><g id="Calque_2" data-name="Calque 2"><g id="Calque_1-2" data-name="Calque 1"><path class="cls-1" d="M213.19,12.57c15.07.81,29.95-2.23,45-2.19l51,.07c4.32.05,8.64.25,12.95.11,19.24-.61,38.4-3.28,57.71-2,2.84.19,5.7,0,9.73,0-3.91-3.16-7.67-1.06-11.42-2.81,3.92-.77,7.47.72,11.48-1.89-27.53-4.9-54-1.29-80.42-2.27a429.94,429.94,0,0,0-50-.67c-9.77-.61-19.5.51-29.21,1.26-5.59.43-11.26-.31-16.78,1.14-8.75,0-17.51-.15-26.25.16-5.94.2-11.84-1.1-17.76-.11-5.95-.38-11.91-.73-17.85-1.15C139.61,1.42,127.92,0,116.14,1c-1.8-.11-3.62-.34-5.42-.32C92.21.78,73.71,2.5,55.2,1c-8-.53-15.93-1.74-23.87-.4C23,2,14.76,1.17,6.48.44,3.6.19.24-1.12,0,3.88c-.25,5.56,1.86,8.46,6.36,8.66,16.3.69,32.53-1.67,48.83-1,20.36,2.59,40.65-.43,61-.77,17.65.92,35.29,2.13,53,2A267.37,267.37,0,0,0,213.19,12.57Z"/><path class="cls-2" d="M116.19,10.78c-20.33.34-40.62,3.36-61,.77,0-3.51,0-7,0-10.54,18.51,1.49,37-.23,55.52-.36,1.8,0,3.62.21,5.42.32C116.16,4.24,116.17,7.51,116.19,10.78Z"/><path class="cls-3" d="M55.2,1c0,3.51,0,7,0,10.54-16.3-.68-32.53,1.68-48.83,1C1.88,12.34-.23,9.44,0,3.88.24-1.12,3.6.19,6.48.44,14.76,1.17,23,2,31.33.61,39.27-.73,47.24.48,55.2,1Z"/><path class="cls-4" d="M309.17,1.63c26.38,1,52.89-2.63,80.42,2.27-4,2.61-7.56,1.12-11.48,1.89,3.75,1.75,7.51-.35,11.42,2.81-4,0-6.89.16-9.73,0-19.31-1.29-38.47,1.38-57.71,2-4.31.14-8.63-.06-12.95-.11Zm67.54,3.86c-.25-.35-.39-.71-.53-.71a7,7,0,0,0-1.34.2c.14.2.25.54.41.56A9.46,9.46,0,0,0,376.71,5.49Z"/><path class="cls-5" d="M116.19,10.78c0-3.27,0-6.54,0-9.81,11.78-1,23.47.45,35.18,1.29,5.94.42,11.9.77,17.85,1.15V12.8C151.48,12.91,133.84,11.7,116.19,10.78Z"/><path class="cls-6" d="M309.17,1.63l0,8.82-51-.07c-.54-3.23,1.09-6.24,1-9.42A429.94,429.94,0,0,1,309.17,1.63Z"/><path class="cls-7" d="M259.17,1c.09,3.18-1.54,6.19-1,9.42-15,0-29.91,3-45,2.19q0-4.61,0-9.21c5.52-1.45,11.19-.71,16.78-1.14C239.67,1.47,249.4.35,259.17,1Z"/><path class="cls-8" d="M213.18,3.36q0,4.61,0,9.21a267.37,267.37,0,0,1-44,.23V3.41c5.92-1,11.82.31,17.76.11C195.67,3.21,204.43,3.39,213.18,3.36Z"/><path class="cls-1" d="M376.71,5.49a9.46,9.46,0,0,1-1.46,0c-.16,0-.27-.36-.41-.56a7,7,0,0,1,1.34-.2C376.32,4.78,376.46,5.14,376.71,5.49Z"/></g></g></svg>